<svg xmlns="http://www.w3.org/2000/svg" width="860" height="480" viewBox="0 0 860 480" font-family="Helvetica, Arial, sans-serif" font-size="12">
<rect width="100%" height="100%" fill="white"/>
<text x="430" y="22" text-anchor="middle" font-size="15" font-weight="bold">1D Float64 rfft: FFTA exec time / FFTW exec time</text>
<line x1="70.0" y1="40" x2="70.0" y2="425" stroke="#ddd"/><text x="70.0" y="441" text-anchor="middle">1e0</text>
<line x1="180.0" y1="40" x2="180.0" y2="425" stroke="#ddd"/><text x="180.0" y="441" text-anchor="middle">1e1</text>
<line x1="290.0" y1="40" x2="290.0" y2="425" stroke="#ddd"/><text x="290.0" y="441" text-anchor="middle">1e2</text>
<line x1="400.0" y1="40" x2="400.0" y2="425" stroke="#ddd"/><text x="400.0" y="441" text-anchor="middle">1e3</text>
<line x1="510.0" y1="40" x2="510.0" y2="425" stroke="#ddd"/><text x="510.0" y="441" text-anchor="middle">1e4</text>
<line x1="620.0" y1="40" x2="620.0" y2="425" stroke="#ddd"/><text x="620.0" y="441" text-anchor="middle">1e5</text>
<line x1="730.0" y1="40" x2="730.0" y2="425" stroke="#ddd"/><text x="730.0" y="441" text-anchor="middle">1e6</text>
<line x1="840.0" y1="40" x2="840.0" y2="425" stroke="#ddd"/><text x="840.0" y="441" text-anchor="middle">1e7</text>
<line x1="70" y1="425.0" x2="840" y2="425.0" stroke="#eee"/><text x="64" y="429.0" text-anchor="end">0.32</text>
<line x1="70" y1="296.6666666666667" x2="840" y2="296.6666666666667" stroke="#eee"/><text x="64" y="300.6666666666667" text-anchor="end">1e0</text>
<line x1="70" y1="168.33333333333337" x2="840" y2="168.33333333333337" stroke="#eee"/><text x="64" y="172.33333333333337" text-anchor="end">3.2</text>
<line x1="70" y1="40.0" x2="840" y2="40.0" stroke="#eee"/><text x="64" y="44.0" text-anchor="end">1e1</text>
<line x1="70" y1="296.6666666666667" x2="840" y2="296.6666666666667" stroke="#000" stroke-dasharray="6,4"/>
<rect x="70" y="40" width="770" height="385" fill="none" stroke="#333"/>
<text x="455" y="468" text-anchor="middle">n</text>
<text transform="translate(16,232) rotate(-90)" text-anchor="middle">ratio (FFTA / FFTW)</text>
<polyline fill="none" stroke="#1f77b4" stroke-width="1.5" points="169.3,156.7 202.5,164.9 235.6,226.7 268.7,229.3 301.8,221.8 334.9,221.8 368.0,219.6 401.1,217.0 434.2,215.3 467.4,215.6 500.5,237.6 533.6,242.3 566.7,237.4 599.8,239.3 632.9,246.5 666.0,257.0 699.2,256.1 732.3,265.1 765.4,308.8 798.5,315.8"/>
<circle cx="169.3" cy="156.7" r="3" fill="#1f77b4"/><circle cx="202.5" cy="164.9" r="3" fill="#1f77b4"/><circle cx="235.6" cy="226.7" r="3" fill="#1f77b4"/><circle cx="268.7" cy="229.3" r="3" fill="#1f77b4"/><circle cx="301.8" cy="221.8" r="3" fill="#1f77b4"/><circle cx="334.9" cy="221.8" r="3" fill="#1f77b4"/><circle cx="368.0" cy="219.6" r="3" fill="#1f77b4"/><circle cx="401.1" cy="217.0" r="3" fill="#1f77b4"/><circle cx="434.2" cy="215.3" r="3" fill="#1f77b4"/><circle cx="467.4" cy="215.6" r="3" fill="#1f77b4"/><circle cx="500.5" cy="237.6" r="3" fill="#1f77b4"/><circle cx="533.6" cy="242.3" r="3" fill="#1f77b4"/><circle cx="566.7" cy="237.4" r="3" fill="#1f77b4"/><circle cx="599.8" cy="239.3" r="3" fill="#1f77b4"/><circle cx="632.9" cy="246.5" r="3" fill="#1f77b4"/><circle cx="666.0" cy="257.0" r="3" fill="#1f77b4"/><circle cx="699.2" cy="256.1" r="3" fill="#1f77b4"/><circle cx="732.3" cy="265.1" r="3" fill="#1f77b4"/><circle cx="765.4" cy="308.8" r="3" fill="#1f77b4"/><circle cx="798.5" cy="315.8" r="3" fill="#1f77b4"/>
<rect x="80" y="45" width="12" height="10" fill="#1f77b4"/><text x="96" y="54">pow2</text>
<polyline fill="none" stroke="#d62728" stroke-width="1.5" points="188.7,85.4 223.8,101.2 260.6,182.2 265.6,101.4 295.4,138.2 298.7,113.5 332.4,171.2 351.2,149.1 367.3,144.3 384.3,157.9 400.0,128.3 403.7,154.8 439.9,198.4 475.5,161.2 511.4,133.4 547.4,81.6 583.2,84.9 619.2,235.1 654.8,202.6 690.9,155.9 726.7,243.3 730.0,227.2 762.5,214.4 798.2,209.2"/>
<circle cx="188.7" cy="85.4" r="3" fill="#d62728"/><circle cx="223.8" cy="101.2" r="3" fill="#d62728"/><circle cx="260.6" cy="182.2" r="3" fill="#d62728"/><circle cx="265.6" cy="101.4" r="3" fill="#d62728"/><circle cx="295.4" cy="138.2" r="3" fill="#d62728"/><circle cx="298.7" cy="113.5" r="3" fill="#d62728"/><circle cx="332.4" cy="171.2" r="3" fill="#d62728"/><circle cx="351.2" cy="149.1" r="3" fill="#d62728"/><circle cx="367.3" cy="144.3" r="3" fill="#d62728"/><circle cx="384.3" cy="157.9" r="3" fill="#d62728"/><circle cx="400.0" cy="128.3" r="3" fill="#d62728"/><circle cx="403.7" cy="154.8" r="3" fill="#d62728"/><circle cx="439.9" cy="198.4" r="3" fill="#d62728"/><circle cx="475.5" cy="161.2" r="3" fill="#d62728"/><circle cx="511.4" cy="133.4" r="3" fill="#d62728"/><circle cx="547.4" cy="81.6" r="3" fill="#d62728"/><circle cx="583.2" cy="84.9" r="3" fill="#d62728"/><circle cx="619.2" cy="235.1" r="3" fill="#d62728"/><circle cx="654.8" cy="202.6" r="3" fill="#d62728"/><circle cx="690.9" cy="155.9" r="3" fill="#d62728"/><circle cx="726.7" cy="243.3" r="3" fill="#d62728"/><circle cx="730.0" cy="227.2" r="3" fill="#d62728"/><circle cx="762.5" cy="214.4" r="3" fill="#d62728"/><circle cx="798.2" cy="209.2" r="3" fill="#d62728"/>
<rect x="80" y="61" width="12" height="10" fill="#d62728"/><text x="96" y="70">smooth</text>
<polyline fill="none" stroke="#2ca02c" stroke-width="1.5" points="163.0,212.7 205.3,261.4 219.8,242.0 230.9,174.4 234.0,185.1 242.5,128.8 247.4,147.5 249.7,156.1 266.4,223.8 273.6,168.3 275.0,174.0 278.7,190.6 290.5,241.8 334.0,233.1 375.0,210.4 417.2,223.0 459.7,249.3 501.9,150.5 544.3,169.9 586.7,195.6 629.0,247.1 671.4,207.5 713.8,250.4 756.1,291.5"/>
<circle cx="163.0" cy="212.7" r="3" fill="#2ca02c"/><circle cx="205.3" cy="261.4" r="3" fill="#2ca02c"/><circle cx="219.8" cy="242.0" r="3" fill="#2ca02c"/><circle cx="230.9" cy="174.4" r="3" fill="#2ca02c"/><circle cx="234.0" cy="185.1" r="3" fill="#2ca02c"/><circle cx="242.5" cy="128.8" r="3" fill="#2ca02c"/><circle cx="247.4" cy="147.5" r="3" fill="#2ca02c"/><circle cx="249.7" cy="156.1" r="3" fill="#2ca02c"/><circle cx="266.4" cy="223.8" r="3" fill="#2ca02c"/><circle cx="273.6" cy="168.3" r="3" fill="#2ca02c"/><circle cx="275.0" cy="174.0" r="3" fill="#2ca02c"/><circle cx="278.7" cy="190.6" r="3" fill="#2ca02c"/><circle cx="290.5" cy="241.8" r="3" fill="#2ca02c"/><circle cx="334.0" cy="233.1" r="3" fill="#2ca02c"/><circle cx="375.0" cy="210.4" r="3" fill="#2ca02c"/><circle cx="417.2" cy="223.0" r="3" fill="#2ca02c"/><circle cx="459.7" cy="249.3" r="3" fill="#2ca02c"/><circle cx="501.9" cy="150.5" r="3" fill="#2ca02c"/><circle cx="544.3" cy="169.9" r="3" fill="#2ca02c"/><circle cx="586.7" cy="195.6" r="3" fill="#2ca02c"/><circle cx="629.0" cy="247.1" r="3" fill="#2ca02c"/><circle cx="671.4" cy="207.5" r="3" fill="#2ca02c"/><circle cx="713.8" cy="250.4" r="3" fill="#2ca02c"/><circle cx="756.1" cy="291.5" r="3" fill="#2ca02c"/>
<rect x="80" y="77" width="12" height="10" fill="#2ca02c"/><text x="96" y="86">prime</text>
<polyline fill="none" stroke="#ff7f0e" stroke-width="1.5" points="323.6,226.5 343.0,229.9 356.7,207.8 376.1,214.6 422.9,222.7 433.5,300.9 452.9,203.7 466.7,284.1 486.0,286.9 500.5,211.0 519.9,166.8 532.9,291.9 533.6,202.4 553.0,203.1 566.8,205.5 586.1,154.7 599.8,209.4 599.9,200.1 619.3,201.4 632.9,106.0 652.3,75.6 666.0,113.1 666.1,206.6 685.4,112.5 699.2,188.6 718.5,198.8 732.3,191.0 732.3,123.6 751.6,197.5"/>
<circle cx="323.6" cy="226.5" r="3" fill="#ff7f0e"/><circle cx="343.0" cy="229.9" r="3" fill="#ff7f0e"/><circle cx="356.7" cy="207.8" r="3" fill="#ff7f0e"/><circle cx="376.1" cy="214.6" r="3" fill="#ff7f0e"/><circle cx="422.9" cy="222.7" r="3" fill="#ff7f0e"/><circle cx="433.5" cy="300.9" r="3" fill="#ff7f0e"/><circle cx="452.9" cy="203.7" r="3" fill="#ff7f0e"/><circle cx="466.7" cy="284.1" r="3" fill="#ff7f0e"/><circle cx="486.0" cy="286.9" r="3" fill="#ff7f0e"/><circle cx="500.5" cy="211.0" r="3" fill="#ff7f0e"/><circle cx="519.9" cy="166.8" r="3" fill="#ff7f0e"/><circle cx="532.9" cy="291.9" r="3" fill="#ff7f0e"/><circle cx="533.6" cy="202.4" r="3" fill="#ff7f0e"/><circle cx="553.0" cy="203.1" r="3" fill="#ff7f0e"/><circle cx="566.8" cy="205.5" r="3" fill="#ff7f0e"/><circle cx="586.1" cy="154.7" r="3" fill="#ff7f0e"/><circle cx="599.8" cy="209.4" r="3" fill="#ff7f0e"/><circle cx="599.9" cy="200.1" r="3" fill="#ff7f0e"/><circle cx="619.3" cy="201.4" r="3" fill="#ff7f0e"/><circle cx="632.9" cy="106.0" r="3" fill="#ff7f0e"/><circle cx="652.3" cy="75.6" r="3" fill="#ff7f0e"/><circle cx="666.0" cy="113.1" r="3" fill="#ff7f0e"/><circle cx="666.1" cy="206.6" r="3" fill="#ff7f0e"/><circle cx="685.4" cy="112.5" r="3" fill="#ff7f0e"/><circle cx="699.2" cy="188.6" r="3" fill="#ff7f0e"/><circle cx="718.5" cy="198.8" r="3" fill="#ff7f0e"/><circle cx="732.3" cy="191.0" r="3" fill="#ff7f0e"/><circle cx="732.3" cy="123.6" r="3" fill="#ff7f0e"/><circle cx="751.6" cy="197.5" r="3" fill="#ff7f0e"/>
<rect x="80" y="93" width="12" height="10" fill="#ff7f0e"/><text x="96" y="102">awkward</text>
</svg>
