<svg xmlns="http://www.w3.org/2000/svg" width="860" height="480" viewBox="0 0 860 480" font-family="Helvetica, Arial, sans-serif" font-size="12">
<rect width="100%" height="100%" fill="white"/>
<text x="430" y="22" text-anchor="middle" font-size="15" font-weight="bold">1D Float32 rfft: FFTA exec time / FFTW exec time</text>
<line x1="70.0" y1="40" x2="70.0" y2="425" stroke="#ddd"/><text x="70.0" y="441" text-anchor="middle">1e0</text>
<line x1="180.0" y1="40" x2="180.0" y2="425" stroke="#ddd"/><text x="180.0" y="441" text-anchor="middle">1e1</text>
<line x1="290.0" y1="40" x2="290.0" y2="425" stroke="#ddd"/><text x="290.0" y="441" text-anchor="middle">1e2</text>
<line x1="400.0" y1="40" x2="400.0" y2="425" stroke="#ddd"/><text x="400.0" y="441" text-anchor="middle">1e3</text>
<line x1="510.0" y1="40" x2="510.0" y2="425" stroke="#ddd"/><text x="510.0" y="441" text-anchor="middle">1e4</text>
<line x1="620.0" y1="40" x2="620.0" y2="425" stroke="#ddd"/><text x="620.0" y="441" text-anchor="middle">1e5</text>
<line x1="730.0" y1="40" x2="730.0" y2="425" stroke="#ddd"/><text x="730.0" y="441" text-anchor="middle">1e6</text>
<line x1="840.0" y1="40" x2="840.0" y2="425" stroke="#ddd"/><text x="840.0" y="441" text-anchor="middle">1e7</text>
<line x1="70" y1="425.0" x2="840" y2="425.0" stroke="#eee"/><text x="64" y="429.0" text-anchor="end">1e0</text>
<line x1="70" y1="232.5" x2="840" y2="232.5" stroke="#eee"/><text x="64" y="236.5" text-anchor="end">3.2</text>
<line x1="70" y1="40.0" x2="840" y2="40.0" stroke="#eee"/><text x="64" y="44.0" text-anchor="end">1e1</text>
<line x1="70" y1="425.0" x2="840" y2="425.0" stroke="#000" stroke-dasharray="6,4"/>
<rect x="70" y="40" width="770" height="385" fill="none" stroke="#333"/>
<text x="455" y="468" text-anchor="middle">n</text>
<text transform="translate(16,232) rotate(-90)" text-anchor="middle">ratio (FFTA / FFTW)</text>
<polyline fill="none" stroke="#1f77b4" stroke-width="1.5" points="169.3,227.8 202.5,240.8 235.6,351.1 268.7,342.6 301.8,286.0 334.9,304.5 368.0,273.6 401.1,253.4 434.2,241.0 467.4,237.6 500.5,276.4 533.6,270.6 566.7,275.8 599.8,261.1 632.9,274.5 666.0,309.1 699.2,316.7 732.3,318.0 765.4,312.7 798.5,336.3"/>
<circle cx="169.3" cy="227.8" r="3" fill="#1f77b4"/><circle cx="202.5" cy="240.8" r="3" fill="#1f77b4"/><circle cx="235.6" cy="351.1" r="3" fill="#1f77b4"/><circle cx="268.7" cy="342.6" r="3" fill="#1f77b4"/><circle cx="301.8" cy="286.0" r="3" fill="#1f77b4"/><circle cx="334.9" cy="304.5" r="3" fill="#1f77b4"/><circle cx="368.0" cy="273.6" r="3" fill="#1f77b4"/><circle cx="401.1" cy="253.4" r="3" fill="#1f77b4"/><circle cx="434.2" cy="241.0" r="3" fill="#1f77b4"/><circle cx="467.4" cy="237.6" r="3" fill="#1f77b4"/><circle cx="500.5" cy="276.4" r="3" fill="#1f77b4"/><circle cx="533.6" cy="270.6" r="3" fill="#1f77b4"/><circle cx="566.7" cy="275.8" r="3" fill="#1f77b4"/><circle cx="599.8" cy="261.1" r="3" fill="#1f77b4"/><circle cx="632.9" cy="274.5" r="3" fill="#1f77b4"/><circle cx="666.0" cy="309.1" r="3" fill="#1f77b4"/><circle cx="699.2" cy="316.7" r="3" fill="#1f77b4"/><circle cx="732.3" cy="318.0" r="3" fill="#1f77b4"/><circle cx="765.4" cy="312.7" r="3" fill="#1f77b4"/><circle cx="798.5" cy="336.3" r="3" fill="#1f77b4"/>
<rect x="80" y="45" width="12" height="10" fill="#1f77b4"/><text x="96" y="54">pow2</text>
<polyline fill="none" stroke="#d62728" stroke-width="1.5" points="188.7,118.0 223.8,115.6 260.6,297.7 265.6,163.9 295.4,148.0 298.7,113.5 332.4,229.0 351.2,178.5 367.3,124.1 384.3,201.8 400.0,81.4 403.7,197.5 439.9,232.4 475.5,191.6 511.4,108.0 547.4,73.6 583.2,87.8 619.2,258.5 654.8,266.7 690.9,117.3 726.7,254.6 730.0,138.0 762.5,168.5 798.2,277.4"/>
<circle cx="188.7" cy="118.0" r="3" fill="#d62728"/><circle cx="223.8" cy="115.6" r="3" fill="#d62728"/><circle cx="260.6" cy="297.7" r="3" fill="#d62728"/><circle cx="265.6" cy="163.9" r="3" fill="#d62728"/><circle cx="295.4" cy="148.0" r="3" fill="#d62728"/><circle cx="298.7" cy="113.5" r="3" fill="#d62728"/><circle cx="332.4" cy="229.0" r="3" fill="#d62728"/><circle cx="351.2" cy="178.5" r="3" fill="#d62728"/><circle cx="367.3" cy="124.1" r="3" fill="#d62728"/><circle cx="384.3" cy="201.8" r="3" fill="#d62728"/><circle cx="400.0" cy="81.4" r="3" fill="#d62728"/><circle cx="403.7" cy="197.5" r="3" fill="#d62728"/><circle cx="439.9" cy="232.4" r="3" fill="#d62728"/><circle cx="475.5" cy="191.6" r="3" fill="#d62728"/><circle cx="511.4" cy="108.0" r="3" fill="#d62728"/><circle cx="547.4" cy="73.6" r="3" fill="#d62728"/><circle cx="583.2" cy="87.8" r="3" fill="#d62728"/><circle cx="619.2" cy="258.5" r="3" fill="#d62728"/><circle cx="654.8" cy="266.7" r="3" fill="#d62728"/><circle cx="690.9" cy="117.3" r="3" fill="#d62728"/><circle cx="726.7" cy="254.6" r="3" fill="#d62728"/><circle cx="730.0" cy="138.0" r="3" fill="#d62728"/><circle cx="762.5" cy="168.5" r="3" fill="#d62728"/><circle cx="798.2" cy="277.4" r="3" fill="#d62728"/>
<rect x="80" y="61" width="12" height="10" fill="#d62728"/><text x="96" y="70">smooth</text>
<polyline fill="none" stroke="#2ca02c" stroke-width="1.5" points="163.0,306.7 205.3,379.1 219.8,353.1 230.9,255.0 234.0,271.6 242.5,185.5 247.4,215.1 249.7,227.6 266.4,328.9 273.6,243.7 275.0,252.2 278.7,277.0 290.5,353.7 334.0,335.8 375.0,304.5 417.2,322.6 459.7,358.3 501.9,237.1 544.3,252.9 586.7,281.4 629.0,390.3 671.4,271.6 713.8,351.9 756.1,402.4"/>
<circle cx="163.0" cy="306.7" r="3" fill="#2ca02c"/><circle cx="205.3" cy="379.1" r="3" fill="#2ca02c"/><circle cx="219.8" cy="353.1" r="3" fill="#2ca02c"/><circle cx="230.9" cy="255.0" r="3" fill="#2ca02c"/><circle cx="234.0" cy="271.6" r="3" fill="#2ca02c"/><circle cx="242.5" cy="185.5" r="3" fill="#2ca02c"/><circle cx="247.4" cy="215.1" r="3" fill="#2ca02c"/><circle cx="249.7" cy="227.6" r="3" fill="#2ca02c"/><circle cx="266.4" cy="328.9" r="3" fill="#2ca02c"/><circle cx="273.6" cy="243.7" r="3" fill="#2ca02c"/><circle cx="275.0" cy="252.2" r="3" fill="#2ca02c"/><circle cx="278.7" cy="277.0" r="3" fill="#2ca02c"/><circle cx="290.5" cy="353.7" r="3" fill="#2ca02c"/><circle cx="334.0" cy="335.8" r="3" fill="#2ca02c"/><circle cx="375.0" cy="304.5" r="3" fill="#2ca02c"/><circle cx="417.2" cy="322.6" r="3" fill="#2ca02c"/><circle cx="459.7" cy="358.3" r="3" fill="#2ca02c"/><circle cx="501.9" cy="237.1" r="3" fill="#2ca02c"/><circle cx="544.3" cy="252.9" r="3" fill="#2ca02c"/><circle cx="586.7" cy="281.4" r="3" fill="#2ca02c"/><circle cx="629.0" cy="390.3" r="3" fill="#2ca02c"/><circle cx="671.4" cy="271.6" r="3" fill="#2ca02c"/><circle cx="713.8" cy="351.9" r="3" fill="#2ca02c"/><circle cx="756.1" cy="402.4" r="3" fill="#2ca02c"/>
<rect x="80" y="77" width="12" height="10" fill="#2ca02c"/><text x="96" y="86">prime</text>
<polyline fill="none" stroke="#ff7f0e" stroke-width="1.5" points="323.6,297.3 343.0,336.4 356.7,269.3 376.1,274.4 422.9,287.9 433.5,373.6 452.9,293.1 466.7,348.0 486.0,352.4 500.5,278.2 519.9,243.6 532.9,363.7 533.6,267.4 553.0,267.9 566.8,263.0 586.1,220.6 599.8,275.8 599.9,256.3 619.3,250.8 632.9,109.0 652.3,107.1 666.0,111.3 666.1,259.7 685.4,112.4 699.2,212.1 718.5,252.6 732.3,210.9 732.3,141.7 751.6,215.1"/>
<circle cx="323.6" cy="297.3" r="3" fill="#ff7f0e"/><circle cx="343.0" cy="336.4" r="3" fill="#ff7f0e"/><circle cx="356.7" cy="269.3" r="3" fill="#ff7f0e"/><circle cx="376.1" cy="274.4" r="3" fill="#ff7f0e"/><circle cx="422.9" cy="287.9" r="3" fill="#ff7f0e"/><circle cx="433.5" cy="373.6" r="3" fill="#ff7f0e"/><circle cx="452.9" cy="293.1" r="3" fill="#ff7f0e"/><circle cx="466.7" cy="348.0" r="3" fill="#ff7f0e"/><circle cx="486.0" cy="352.4" r="3" fill="#ff7f0e"/><circle cx="500.5" cy="278.2" r="3" fill="#ff7f0e"/><circle cx="519.9" cy="243.6" r="3" fill="#ff7f0e"/><circle cx="532.9" cy="363.7" r="3" fill="#ff7f0e"/><circle cx="533.6" cy="267.4" r="3" fill="#ff7f0e"/><circle cx="553.0" cy="267.9" r="3" fill="#ff7f0e"/><circle cx="566.8" cy="263.0" r="3" fill="#ff7f0e"/><circle cx="586.1" cy="220.6" r="3" fill="#ff7f0e"/><circle cx="599.8" cy="275.8" r="3" fill="#ff7f0e"/><circle cx="599.9" cy="256.3" r="3" fill="#ff7f0e"/><circle cx="619.3" cy="250.8" r="3" fill="#ff7f0e"/><circle cx="632.9" cy="109.0" r="3" fill="#ff7f0e"/><circle cx="652.3" cy="107.1" r="3" fill="#ff7f0e"/><circle cx="666.0" cy="111.3" r="3" fill="#ff7f0e"/><circle cx="666.1" cy="259.7" r="3" fill="#ff7f0e"/><circle cx="685.4" cy="112.4" r="3" fill="#ff7f0e"/><circle cx="699.2" cy="212.1" r="3" fill="#ff7f0e"/><circle cx="718.5" cy="252.6" r="3" fill="#ff7f0e"/><circle cx="732.3" cy="210.9" r="3" fill="#ff7f0e"/><circle cx="732.3" cy="141.7" r="3" fill="#ff7f0e"/><circle cx="751.6" cy="215.1" r="3" fill="#ff7f0e"/>
<rect x="80" y="93" width="12" height="10" fill="#ff7f0e"/><text x="96" y="102">awkward</text>
</svg>
