<svg xmlns="http://www.w3.org/2000/svg" width="860" height="480" viewBox="0 0 860 480" font-family="Helvetica, Arial, sans-serif" font-size="12">
<rect width="100%" height="100%" fill="white"/>
<text x="430" y="22" text-anchor="middle" font-size="15" font-weight="bold">1D ComplexF64 fft: FFTA exec time / FFTW exec time</text>
<line x1="70.0" y1="40" x2="70.0" y2="425" stroke="#ddd"/><text x="70.0" y="441" text-anchor="middle">1e0</text>
<line x1="180.0" y1="40" x2="180.0" y2="425" stroke="#ddd"/><text x="180.0" y="441" text-anchor="middle">1e1</text>
<line x1="290.0" y1="40" x2="290.0" y2="425" stroke="#ddd"/><text x="290.0" y="441" text-anchor="middle">1e2</text>
<line x1="400.0" y1="40" x2="400.0" y2="425" stroke="#ddd"/><text x="400.0" y="441" text-anchor="middle">1e3</text>
<line x1="510.0" y1="40" x2="510.0" y2="425" stroke="#ddd"/><text x="510.0" y="441" text-anchor="middle">1e4</text>
<line x1="620.0" y1="40" x2="620.0" y2="425" stroke="#ddd"/><text x="620.0" y="441" text-anchor="middle">1e5</text>
<line x1="730.0" y1="40" x2="730.0" y2="425" stroke="#ddd"/><text x="730.0" y="441" text-anchor="middle">1e6</text>
<line x1="840.0" y1="40" x2="840.0" y2="425" stroke="#ddd"/><text x="840.0" y="441" text-anchor="middle">1e7</text>
<line x1="70" y1="425.0" x2="840" y2="425.0" stroke="#eee"/><text x="64" y="429.0" text-anchor="end">1e0</text>
<line x1="70" y1="296.6666666666667" x2="840" y2="296.6666666666667" stroke="#eee"/><text x="64" y="300.6666666666667" text-anchor="end">3.2</text>
<line x1="70" y1="168.33333333333337" x2="840" y2="168.33333333333337" stroke="#eee"/><text x="64" y="172.33333333333337" text-anchor="end">1e1</text>
<line x1="70" y1="40.0" x2="840" y2="40.0" stroke="#eee"/><text x="64" y="44.0" text-anchor="end">32</text>
<line x1="70" y1="425.0" x2="840" y2="425.0" stroke="#000" stroke-dasharray="6,4"/>
<rect x="70" y="40" width="770" height="385" fill="none" stroke="#333"/>
<text x="455" y="468" text-anchor="middle">n</text>
<text transform="translate(16,232) rotate(-90)" text-anchor="middle">ratio (FFTA / FFTW)</text>
<polyline fill="none" stroke="#1f77b4" stroke-width="1.5" points="169.3,260.6 202.5,282.9 235.6,206.1 268.7,317.6 301.8,263.6 334.9,299.7 368.0,259.2 401.1,300.5 434.2,265.9 467.4,299.9 500.5,300.1 533.6,330.3 566.7,315.5 599.8,358.1 632.9,324.3 666.0,378.1 699.2,389.2 732.3,415.6 765.4,392.8 798.5,420.7"/>
<circle cx="169.3" cy="260.6" r="3" fill="#1f77b4"/><circle cx="202.5" cy="282.9" r="3" fill="#1f77b4"/><circle cx="235.6" cy="206.1" r="3" fill="#1f77b4"/><circle cx="268.7" cy="317.6" r="3" fill="#1f77b4"/><circle cx="301.8" cy="263.6" r="3" fill="#1f77b4"/><circle cx="334.9" cy="299.7" r="3" fill="#1f77b4"/><circle cx="368.0" cy="259.2" r="3" fill="#1f77b4"/><circle cx="401.1" cy="300.5" r="3" fill="#1f77b4"/><circle cx="434.2" cy="265.9" r="3" fill="#1f77b4"/><circle cx="467.4" cy="299.9" r="3" fill="#1f77b4"/><circle cx="500.5" cy="300.1" r="3" fill="#1f77b4"/><circle cx="533.6" cy="330.3" r="3" fill="#1f77b4"/><circle cx="566.7" cy="315.5" r="3" fill="#1f77b4"/><circle cx="599.8" cy="358.1" r="3" fill="#1f77b4"/><circle cx="632.9" cy="324.3" r="3" fill="#1f77b4"/><circle cx="666.0" cy="378.1" r="3" fill="#1f77b4"/><circle cx="699.2" cy="389.2" r="3" fill="#1f77b4"/><circle cx="732.3" cy="415.6" r="3" fill="#1f77b4"/><circle cx="765.4" cy="392.8" r="3" fill="#1f77b4"/><circle cx="798.5" cy="420.7" r="3" fill="#1f77b4"/>
<rect x="80" y="45" width="12" height="10" fill="#1f77b4"/><text x="96" y="54">pow2</text>
<polyline fill="none" stroke="#d62728" stroke-width="1.5" points="188.7,195.9 223.8,129.1 260.6,233.3 265.6,153.4 295.4,156.0 298.7,137.3 332.4,293.8 351.2,173.1 367.3,174.8 384.3,180.5 400.0,135.3 403.7,177.7 439.9,280.9 475.5,216.2 511.4,132.2 547.4,125.6 583.2,170.9 619.2,302.3 654.8,243.2 690.9,214.9 726.7,319.3 730.0,240.8 762.5,244.0 798.2,241.7"/>
<circle cx="188.7" cy="195.9" r="3" fill="#d62728"/><circle cx="223.8" cy="129.1" r="3" fill="#d62728"/><circle cx="260.6" cy="233.3" r="3" fill="#d62728"/><circle cx="265.6" cy="153.4" r="3" fill="#d62728"/><circle cx="295.4" cy="156.0" r="3" fill="#d62728"/><circle cx="298.7" cy="137.3" r="3" fill="#d62728"/><circle cx="332.4" cy="293.8" r="3" fill="#d62728"/><circle cx="351.2" cy="173.1" r="3" fill="#d62728"/><circle cx="367.3" cy="174.8" r="3" fill="#d62728"/><circle cx="384.3" cy="180.5" r="3" fill="#d62728"/><circle cx="400.0" cy="135.3" r="3" fill="#d62728"/><circle cx="403.7" cy="177.7" r="3" fill="#d62728"/><circle cx="439.9" cy="280.9" r="3" fill="#d62728"/><circle cx="475.5" cy="216.2" r="3" fill="#d62728"/><circle cx="511.4" cy="132.2" r="3" fill="#d62728"/><circle cx="547.4" cy="125.6" r="3" fill="#d62728"/><circle cx="583.2" cy="170.9" r="3" fill="#d62728"/><circle cx="619.2" cy="302.3" r="3" fill="#d62728"/><circle cx="654.8" cy="243.2" r="3" fill="#d62728"/><circle cx="690.9" cy="214.9" r="3" fill="#d62728"/><circle cx="726.7" cy="319.3" r="3" fill="#d62728"/><circle cx="730.0" cy="240.8" r="3" fill="#d62728"/><circle cx="762.5" cy="244.0" r="3" fill="#d62728"/><circle cx="798.2" cy="241.7" r="3" fill="#d62728"/>
<rect x="80" y="61" width="12" height="10" fill="#d62728"/><text x="96" y="70">smooth</text>
<polyline fill="none" stroke="#2ca02c" stroke-width="1.5" points="163.0,161.6 205.3,175.8 219.8,174.6 230.9,172.0 234.0,172.2 242.5,212.3 247.4,210.2 249.7,170.8 266.4,173.3 273.6,228.2 275.0,177.2 278.7,221.2 290.5,208.2 334.0,207.7 375.0,206.6 417.2,261.6 459.7,268.1 501.9,194.9 544.3,253.6 586.7,245.9 629.0,299.6 671.4,261.0 713.8,298.7 756.1,294.5"/>
<circle cx="163.0" cy="161.6" r="3" fill="#2ca02c"/><circle cx="205.3" cy="175.8" r="3" fill="#2ca02c"/><circle cx="219.8" cy="174.6" r="3" fill="#2ca02c"/><circle cx="230.9" cy="172.0" r="3" fill="#2ca02c"/><circle cx="234.0" cy="172.2" r="3" fill="#2ca02c"/><circle cx="242.5" cy="212.3" r="3" fill="#2ca02c"/><circle cx="247.4" cy="210.2" r="3" fill="#2ca02c"/><circle cx="249.7" cy="170.8" r="3" fill="#2ca02c"/><circle cx="266.4" cy="173.3" r="3" fill="#2ca02c"/><circle cx="273.6" cy="228.2" r="3" fill="#2ca02c"/><circle cx="275.0" cy="177.2" r="3" fill="#2ca02c"/><circle cx="278.7" cy="221.2" r="3" fill="#2ca02c"/><circle cx="290.5" cy="208.2" r="3" fill="#2ca02c"/><circle cx="334.0" cy="207.7" r="3" fill="#2ca02c"/><circle cx="375.0" cy="206.6" r="3" fill="#2ca02c"/><circle cx="417.2" cy="261.6" r="3" fill="#2ca02c"/><circle cx="459.7" cy="268.1" r="3" fill="#2ca02c"/><circle cx="501.9" cy="194.9" r="3" fill="#2ca02c"/><circle cx="544.3" cy="253.6" r="3" fill="#2ca02c"/><circle cx="586.7" cy="245.9" r="3" fill="#2ca02c"/><circle cx="629.0" cy="299.6" r="3" fill="#2ca02c"/><circle cx="671.4" cy="261.0" r="3" fill="#2ca02c"/><circle cx="713.8" cy="298.7" r="3" fill="#2ca02c"/><circle cx="756.1" cy="294.5" r="3" fill="#2ca02c"/>
<rect x="80" y="77" width="12" height="10" fill="#2ca02c"/><text x="96" y="86">prime</text>
<polyline fill="none" stroke="#ff7f0e" stroke-width="1.5" points="323.6,218.4 343.0,228.4 356.7,231.6 376.1,222.9 422.9,238.6 433.5,278.9 452.9,284.3 466.7,285.8 486.0,279.2 500.5,228.8 519.9,229.1 532.9,288.8 533.6,231.6 553.0,229.9 566.8,239.9 586.1,245.4 599.8,238.5 599.9,245.1 619.3,241.4 632.9,153.8 652.3,154.4 666.0,166.2 666.1,248.7 685.4,171.7 699.2,247.3 718.5,244.5 732.3,247.2 732.3,170.2 751.6,249.0"/>
<circle cx="323.6" cy="218.4" r="3" fill="#ff7f0e"/><circle cx="343.0" cy="228.4" r="3" fill="#ff7f0e"/><circle cx="356.7" cy="231.6" r="3" fill="#ff7f0e"/><circle cx="376.1" cy="222.9" r="3" fill="#ff7f0e"/><circle cx="422.9" cy="238.6" r="3" fill="#ff7f0e"/><circle cx="433.5" cy="278.9" r="3" fill="#ff7f0e"/><circle cx="452.9" cy="284.3" r="3" fill="#ff7f0e"/><circle cx="466.7" cy="285.8" r="3" fill="#ff7f0e"/><circle cx="486.0" cy="279.2" r="3" fill="#ff7f0e"/><circle cx="500.5" cy="228.8" r="3" fill="#ff7f0e"/><circle cx="519.9" cy="229.1" r="3" fill="#ff7f0e"/><circle cx="532.9" cy="288.8" r="3" fill="#ff7f0e"/><circle cx="533.6" cy="231.6" r="3" fill="#ff7f0e"/><circle cx="553.0" cy="229.9" r="3" fill="#ff7f0e"/><circle cx="566.8" cy="239.9" r="3" fill="#ff7f0e"/><circle cx="586.1" cy="245.4" r="3" fill="#ff7f0e"/><circle cx="599.8" cy="238.5" r="3" fill="#ff7f0e"/><circle cx="599.9" cy="245.1" r="3" fill="#ff7f0e"/><circle cx="619.3" cy="241.4" r="3" fill="#ff7f0e"/><circle cx="632.9" cy="153.8" r="3" fill="#ff7f0e"/><circle cx="652.3" cy="154.4" r="3" fill="#ff7f0e"/><circle cx="666.0" cy="166.2" r="3" fill="#ff7f0e"/><circle cx="666.1" cy="248.7" r="3" fill="#ff7f0e"/><circle cx="685.4" cy="171.7" r="3" fill="#ff7f0e"/><circle cx="699.2" cy="247.3" r="3" fill="#ff7f0e"/><circle cx="718.5" cy="244.5" r="3" fill="#ff7f0e"/><circle cx="732.3" cy="247.2" r="3" fill="#ff7f0e"/><circle cx="732.3" cy="170.2" r="3" fill="#ff7f0e"/><circle cx="751.6" cy="249.0" r="3" fill="#ff7f0e"/>
<rect x="80" y="93" width="12" height="10" fill="#ff7f0e"/><text x="96" y="102">awkward</text>
</svg>
