<svg xmlns="http://www.w3.org/2000/svg" width="860" height="480" viewBox="0 0 860 480" font-family="Helvetica, Arial, sans-serif" font-size="12">
<rect width="100%" height="100%" fill="white"/>
<text x="430" y="22" text-anchor="middle" font-size="15" font-weight="bold">1D ComplexF32 fft: FFTA exec time / FFTW exec time</text>
<line x1="70.0" y1="40" x2="70.0" y2="425" stroke="#ddd"/><text x="70.0" y="441" text-anchor="middle">1e0</text>
<line x1="180.0" y1="40" x2="180.0" y2="425" stroke="#ddd"/><text x="180.0" y="441" text-anchor="middle">1e1</text>
<line x1="290.0" y1="40" x2="290.0" y2="425" stroke="#ddd"/><text x="290.0" y="441" text-anchor="middle">1e2</text>
<line x1="400.0" y1="40" x2="400.0" y2="425" stroke="#ddd"/><text x="400.0" y="441" text-anchor="middle">1e3</text>
<line x1="510.0" y1="40" x2="510.0" y2="425" stroke="#ddd"/><text x="510.0" y="441" text-anchor="middle">1e4</text>
<line x1="620.0" y1="40" x2="620.0" y2="425" stroke="#ddd"/><text x="620.0" y="441" text-anchor="middle">1e5</text>
<line x1="730.0" y1="40" x2="730.0" y2="425" stroke="#ddd"/><text x="730.0" y="441" text-anchor="middle">1e6</text>
<line x1="840.0" y1="40" x2="840.0" y2="425" stroke="#ddd"/><text x="840.0" y="441" text-anchor="middle">1e7</text>
<line x1="70" y1="425.0" x2="840" y2="425.0" stroke="#eee"/><text x="64" y="429.0" text-anchor="end">1e0</text>
<line x1="70" y1="328.75" x2="840" y2="328.75" stroke="#eee"/><text x="64" y="332.75" text-anchor="end">3.2</text>
<line x1="70" y1="232.5" x2="840" y2="232.5" stroke="#eee"/><text x="64" y="236.5" text-anchor="end">1e1</text>
<line x1="70" y1="136.25" x2="840" y2="136.25" stroke="#eee"/><text x="64" y="140.25" text-anchor="end">32</text>
<line x1="70" y1="40.0" x2="840" y2="40.0" stroke="#eee"/><text x="64" y="44.0" text-anchor="end">1e2</text>
<line x1="70" y1="425.0" x2="840" y2="425.0" stroke="#000" stroke-dasharray="6,4"/>
<rect x="70" y="40" width="770" height="385" fill="none" stroke="#333"/>
<text x="455" y="468" text-anchor="middle">n</text>
<text transform="translate(16,232) rotate(-90)" text-anchor="middle">ratio (FFTA / FFTW)</text>
<polyline fill="none" stroke="#1f77b4" stroke-width="1.5" points="169.3,346.9 202.5,361.0 235.6,284.0 268.7,263.5 301.8,224.6 334.9,251.9 368.0,222.9 401.1,272.7 434.2,224.2 467.4,284.3 500.5,281.5 533.6,312.8 566.7,296.5 599.8,308.8 632.9,289.7 666.0,323.7 699.2,358.6 732.3,349.8 765.4,316.4 798.5,347.2"/>
<circle cx="169.3" cy="346.9" r="3" fill="#1f77b4"/><circle cx="202.5" cy="361.0" r="3" fill="#1f77b4"/><circle cx="235.6" cy="284.0" r="3" fill="#1f77b4"/><circle cx="268.7" cy="263.5" r="3" fill="#1f77b4"/><circle cx="301.8" cy="224.6" r="3" fill="#1f77b4"/><circle cx="334.9" cy="251.9" r="3" fill="#1f77b4"/><circle cx="368.0" cy="222.9" r="3" fill="#1f77b4"/><circle cx="401.1" cy="272.7" r="3" fill="#1f77b4"/><circle cx="434.2" cy="224.2" r="3" fill="#1f77b4"/><circle cx="467.4" cy="284.3" r="3" fill="#1f77b4"/><circle cx="500.5" cy="281.5" r="3" fill="#1f77b4"/><circle cx="533.6" cy="312.8" r="3" fill="#1f77b4"/><circle cx="566.7" cy="296.5" r="3" fill="#1f77b4"/><circle cx="599.8" cy="308.8" r="3" fill="#1f77b4"/><circle cx="632.9" cy="289.7" r="3" fill="#1f77b4"/><circle cx="666.0" cy="323.7" r="3" fill="#1f77b4"/><circle cx="699.2" cy="358.6" r="3" fill="#1f77b4"/><circle cx="732.3" cy="349.8" r="3" fill="#1f77b4"/><circle cx="765.4" cy="316.4" r="3" fill="#1f77b4"/><circle cx="798.5" cy="347.2" r="3" fill="#1f77b4"/>
<rect x="80" y="45" width="12" height="10" fill="#1f77b4"/><text x="96" y="54">pow2</text>
<polyline fill="none" stroke="#d62728" stroke-width="1.5" points="188.7,271.9 223.8,165.7 260.6,261.2 265.6,154.4 295.4,118.1 298.7,121.9 332.4,293.3 351.2,193.4 367.3,154.7 384.3,208.5 400.0,130.8 403.7,203.3 439.9,227.0 475.5,218.9 511.4,109.3 547.4,124.6 583.2,132.4 619.2,242.2 654.8,220.6 690.9,125.0 726.7,256.3 730.0,191.5 762.5,189.0 798.2,224.5"/>
<circle cx="188.7" cy="271.9" r="3" fill="#d62728"/><circle cx="223.8" cy="165.7" r="3" fill="#d62728"/><circle cx="260.6" cy="261.2" r="3" fill="#d62728"/><circle cx="265.6" cy="154.4" r="3" fill="#d62728"/><circle cx="295.4" cy="118.1" r="3" fill="#d62728"/><circle cx="298.7" cy="121.9" r="3" fill="#d62728"/><circle cx="332.4" cy="293.3" r="3" fill="#d62728"/><circle cx="351.2" cy="193.4" r="3" fill="#d62728"/><circle cx="367.3" cy="154.7" r="3" fill="#d62728"/><circle cx="384.3" cy="208.5" r="3" fill="#d62728"/><circle cx="400.0" cy="130.8" r="3" fill="#d62728"/><circle cx="403.7" cy="203.3" r="3" fill="#d62728"/><circle cx="439.9" cy="227.0" r="3" fill="#d62728"/><circle cx="475.5" cy="218.9" r="3" fill="#d62728"/><circle cx="511.4" cy="109.3" r="3" fill="#d62728"/><circle cx="547.4" cy="124.6" r="3" fill="#d62728"/><circle cx="583.2" cy="132.4" r="3" fill="#d62728"/><circle cx="619.2" cy="242.2" r="3" fill="#d62728"/><circle cx="654.8" cy="220.6" r="3" fill="#d62728"/><circle cx="690.9" cy="125.0" r="3" fill="#d62728"/><circle cx="726.7" cy="256.3" r="3" fill="#d62728"/><circle cx="730.0" cy="191.5" r="3" fill="#d62728"/><circle cx="762.5" cy="189.0" r="3" fill="#d62728"/><circle cx="798.2" cy="224.5" r="3" fill="#d62728"/>
<rect x="80" y="61" width="12" height="10" fill="#d62728"/><text x="96" y="70">smooth</text>
<polyline fill="none" stroke="#2ca02c" stroke-width="1.5" points="163.0,212.7 205.3,226.7 219.8,212.0 230.9,216.6 234.0,214.8 242.5,236.8 247.4,226.6 249.7,174.1 266.4,197.1 273.6,213.2 275.0,249.6 278.7,223.6 290.5,276.3 334.0,277.4 375.0,221.3 417.2,245.7 459.7,249.3 501.9,211.3 544.3,234.5 586.7,235.6 629.0,286.3 671.4,234.9 713.8,234.4 756.1,256.7"/>
<circle cx="163.0" cy="212.7" r="3" fill="#2ca02c"/><circle cx="205.3" cy="226.7" r="3" fill="#2ca02c"/><circle cx="219.8" cy="212.0" r="3" fill="#2ca02c"/><circle cx="230.9" cy="216.6" r="3" fill="#2ca02c"/><circle cx="234.0" cy="214.8" r="3" fill="#2ca02c"/><circle cx="242.5" cy="236.8" r="3" fill="#2ca02c"/><circle cx="247.4" cy="226.6" r="3" fill="#2ca02c"/><circle cx="249.7" cy="174.1" r="3" fill="#2ca02c"/><circle cx="266.4" cy="197.1" r="3" fill="#2ca02c"/><circle cx="273.6" cy="213.2" r="3" fill="#2ca02c"/><circle cx="275.0" cy="249.6" r="3" fill="#2ca02c"/><circle cx="278.7" cy="223.6" r="3" fill="#2ca02c"/><circle cx="290.5" cy="276.3" r="3" fill="#2ca02c"/><circle cx="334.0" cy="277.4" r="3" fill="#2ca02c"/><circle cx="375.0" cy="221.3" r="3" fill="#2ca02c"/><circle cx="417.2" cy="245.7" r="3" fill="#2ca02c"/><circle cx="459.7" cy="249.3" r="3" fill="#2ca02c"/><circle cx="501.9" cy="211.3" r="3" fill="#2ca02c"/><circle cx="544.3" cy="234.5" r="3" fill="#2ca02c"/><circle cx="586.7" cy="235.6" r="3" fill="#2ca02c"/><circle cx="629.0" cy="286.3" r="3" fill="#2ca02c"/><circle cx="671.4" cy="234.9" r="3" fill="#2ca02c"/><circle cx="713.8" cy="234.4" r="3" fill="#2ca02c"/><circle cx="756.1" cy="256.7" r="3" fill="#2ca02c"/>
<rect x="80" y="77" width="12" height="10" fill="#2ca02c"/><text x="96" y="86">prime</text>
<polyline fill="none" stroke="#ff7f0e" stroke-width="1.5" points="323.6,285.3 343.0,285.5 356.7,292.5 376.1,282.8 422.9,296.9 433.5,259.5 452.9,262.1 466.7,265.7 486.0,258.2 500.5,230.0 519.9,232.3 532.9,269.7 533.6,234.2 553.0,229.8 566.8,229.0 586.1,232.0 599.8,237.7 599.9,234.5 619.3,232.2 632.9,215.5 652.3,217.7 666.0,215.7 666.1,238.4 685.4,210.6 699.2,230.0 718.5,225.5 732.3,231.3 732.3,227.8 751.6,229.9"/>
<circle cx="323.6" cy="285.3" r="3" fill="#ff7f0e"/><circle cx="343.0" cy="285.5" r="3" fill="#ff7f0e"/><circle cx="356.7" cy="292.5" r="3" fill="#ff7f0e"/><circle cx="376.1" cy="282.8" r="3" fill="#ff7f0e"/><circle cx="422.9" cy="296.9" r="3" fill="#ff7f0e"/><circle cx="433.5" cy="259.5" r="3" fill="#ff7f0e"/><circle cx="452.9" cy="262.1" r="3" fill="#ff7f0e"/><circle cx="466.7" cy="265.7" r="3" fill="#ff7f0e"/><circle cx="486.0" cy="258.2" r="3" fill="#ff7f0e"/><circle cx="500.5" cy="230.0" r="3" fill="#ff7f0e"/><circle cx="519.9" cy="232.3" r="3" fill="#ff7f0e"/><circle cx="532.9" cy="269.7" r="3" fill="#ff7f0e"/><circle cx="533.6" cy="234.2" r="3" fill="#ff7f0e"/><circle cx="553.0" cy="229.8" r="3" fill="#ff7f0e"/><circle cx="566.8" cy="229.0" r="3" fill="#ff7f0e"/><circle cx="586.1" cy="232.0" r="3" fill="#ff7f0e"/><circle cx="599.8" cy="237.7" r="3" fill="#ff7f0e"/><circle cx="599.9" cy="234.5" r="3" fill="#ff7f0e"/><circle cx="619.3" cy="232.2" r="3" fill="#ff7f0e"/><circle cx="632.9" cy="215.5" r="3" fill="#ff7f0e"/><circle cx="652.3" cy="217.7" r="3" fill="#ff7f0e"/><circle cx="666.0" cy="215.7" r="3" fill="#ff7f0e"/><circle cx="666.1" cy="238.4" r="3" fill="#ff7f0e"/><circle cx="685.4" cy="210.6" r="3" fill="#ff7f0e"/><circle cx="699.2" cy="230.0" r="3" fill="#ff7f0e"/><circle cx="718.5" cy="225.5" r="3" fill="#ff7f0e"/><circle cx="732.3" cy="231.3" r="3" fill="#ff7f0e"/><circle cx="732.3" cy="227.8" r="3" fill="#ff7f0e"/><circle cx="751.6" cy="229.9" r="3" fill="#ff7f0e"/>
<rect x="80" y="93" width="12" height="10" fill="#ff7f0e"/><text x="96" y="102">awkward</text>
</svg>
